<svg width="96" height="32" viewBox="0 0 96 32" fill="none" xmlns="http://www.w3.org/2000/svg">
<g clip-path="url(#clip0_116_55)">
<path d="M17.2327 0C12.4718 0 7.11862 1.20714 3.0653 3.95714C2.67304 4.17857 2.36539 4.61429 2.51152 5.34286C2.59613 5.70714 2.90378 7.3 3.29604 8.17143C3.61138 8.9 4.3882 8.9 4.85737 8.60714C7.35705 7.01429 12.2795 5.2 16.5712 5.2C21.0245 5.2 21.1014 7.22857 21.1014 10.4214V13.1714C14.3792 13.9786 4.78046 15.6429 2.3577 16.5857C-0.372716 17.75 0.0195406 23.2643 0.0195406 24.5714C0.0195406 25.8786 1.18862 32 9.62598 32C13.3024 32 18.371 30.5214 21.4168 28.9929V30.8071C21.4168 31.0214 21.5783 31.3929 21.8859 31.4571C22.1244 31.5286 25.7854 31.6 26.493 31.6C27.2006 31.6 31.3001 31.6214 31.6077 31.55C31.9231 31.4786 32 31.1143 32 30.9V9.71429C31.9923 3.97857 27.5467 0 17.2327 0ZM21.0937 24.8571C19.4478 25.8 17.3481 26.6 15.0099 26.6C10.9489 26.6 10.4797 24.2071 10.472 23.4071C10.472 22.5357 10.2413 20.3571 11.8795 19.6286C13.7485 18.6857 17.6557 17.5286 21.0937 17.2357V24.8571Z" fill="#B13CA5"/>
<path d="M41.6 19.5H38.28L37.68 22H34L37.68 10.6H42.38L45.9 22H42.2L41.6 19.5ZM39.92 13.06L38.74 17.28H41.12L40 13.06H39.92ZM51.4945 10.54C52.5745 10.54 53.4879 10.64 54.2345 10.84C54.9812 11.04 55.5745 11.4267 56.0145 12C56.4679 12.56 56.6945 13.3667 56.6945 14.42C56.6945 14.8867 56.6212 15.3667 56.4745 15.86C56.3412 16.34 56.1679 16.76 55.9545 17.12C55.7545 17.48 55.5745 17.7133 55.4145 17.82C55.2279 17.9533 54.8145 18.06 54.1745 18.14C53.5345 18.2067 52.7812 18.24 51.9145 18.24C51.6079 18.24 51.1345 18.2267 50.4945 18.2V22H46.8945V10.6C48.2945 10.56 49.8279 10.54 51.4945 10.54ZM52.9945 15.68C53.1279 15.5067 53.1945 15.16 53.1945 14.64C53.1945 13.96 53.0479 13.48 52.7545 13.2C52.4745 12.92 51.9812 12.78 51.2745 12.78C51.0345 12.78 50.7745 12.8 50.4945 12.84V15.88C50.6279 15.8933 50.8879 15.9 51.2745 15.9C52.3012 15.9 52.8745 15.8267 52.9945 15.68ZM57.9888 10.6H61.5888V22H57.9888V10.6ZM63.5733 10.6H67.1733V19.36H71.8333V22H63.5733V10.6ZM78.685 22.26C76.6983 22.26 75.205 21.7933 74.205 20.86C73.2183 19.9133 72.725 18.4 72.725 16.32C72.725 14.28 73.2717 12.7933 74.365 11.86C75.4583 10.9267 76.905 10.46 78.705 10.46C82.4917 10.46 84.385 12.3467 84.385 16.12C84.385 18.0267 83.9183 19.5267 82.985 20.62C82.065 21.7133 80.6317 22.26 78.685 22.26ZM78.605 19.9C78.9783 19.9 79.2917 19.84 79.545 19.72C79.7983 19.5867 79.9983 19.36 80.145 19.04C80.425 18.4933 80.565 17.6 80.565 16.36C80.565 15.1467 80.425 14.2667 80.145 13.72C79.865 13.16 79.3517 12.8667 78.605 12.84C78.325 12.84 78.0317 12.8733 77.725 12.94C77.4317 12.9933 77.245 13.0733 77.165 13.18C77.005 13.3667 76.8783 13.7667 76.785 14.38C76.705 14.98 76.665 15.64 76.665 16.36C76.665 17.48 76.7717 18.3 76.985 18.82C77.1317 19.2067 77.3383 19.4867 77.605 19.66C77.8717 19.82 78.205 19.9 78.605 19.9ZM91.9566 22H88.3566V13.1H85.1366V10.6H95.1766V13.1H91.9566V22Z" fill="#3F414B"/>
</g>
<defs>
<clipPath id="clip0_116_55">
<rect width="96" height="32" fill="white"/>
</clipPath>
</defs>
</svg>
