<svg width="32" height="32" viewBox="0 0 32 32" fill="none" xmlns="http://www.w3.org/2000/svg">
<g clip-path="url(#clip0_116_59)">
<path d="M17.2327 0C12.4718 0 7.11862 1.20714 3.0653 3.95714C2.67304 4.17857 2.36539 4.61429 2.51152 5.34286C2.59613 5.70714 2.90378 7.3 3.29604 8.17143C3.61138 8.9 4.3882 8.9 4.85737 8.60714C7.35705 7.01429 12.2795 5.2 16.5712 5.2C21.0245 5.2 21.1014 7.22857 21.1014 10.4214V13.1714C14.3792 13.9786 4.78046 15.6429 2.3577 16.5857C-0.372716 17.75 0.0195406 23.2643 0.0195406 24.5714C0.0195406 25.8786 1.18862 32 9.62598 32C13.3024 32 18.371 30.5214 21.4168 28.9929V30.8071C21.4168 31.0214 21.5783 31.3929 21.8859 31.4571C22.1244 31.5286 25.7854 31.6 26.493 31.6C27.2006 31.6 31.3001 31.6214 31.6077 31.55C31.9231 31.4786 32 31.1143 32 30.9V9.71429C31.9923 3.97857 27.5467 0 17.2327 0ZM21.0937 24.8571C19.4478 25.8 17.3481 26.6 15.0099 26.6C10.9489 26.6 10.4797 24.2071 10.472 23.4071C10.472 22.5357 10.2413 20.3571 11.8795 19.6286C13.7485 18.6857 17.6557 17.5286 21.0937 17.2357V24.8571Z" fill="#B13CA5"/>
</g>
<defs>
<clipPath id="clip0_116_59">
<rect width="32" height="32" fill="white"/>
</clipPath>
</defs>
</svg>
